<svg xmlns="http://www.w3.org/2000/svg" viewBox="0 0 721.81 489.71"><title>Asset 2</title><path d="M175.54,30C95.16,30,30,92.68,30,170S95.16,310,175.54,310c190,10,170-280,370-280,80.38,0,145.54,62.68,145.54,140S625.93,310,545.54,310c-190,10-170-280-370-280" fill="none" stroke="#fff" stroke-width="60"/><path d="M529.61,204.67V171.89H497.08v-13.7h32.54V125.66h13.86v32.54H576v13.7H543.48v32.78Z" fill="#00979c" stroke="#fff" stroke-width="20"/><path d="M683.1,29.29V15.73h-5.16V13.37h13v2.36h-5.2V29.29Zm9.63,0V13.37h3.91l4,12.71,3.89-12.71h3.83V29.29h-2.42V15.93l-4.1,13.36h-2.4l-4.28-13.55V29.29Z" fill="#fff" stroke="#fff"/><path d="M86.25,486.5l-6.52-22.58H38.45l-6.7,22.58H9.66l35-114.37H75.84l35,114.37ZM59.36,393.13l-15.57,53.2h31Z" fill="#fff" stroke="#fff" stroke-width="2.4"/><path d="M182.76,486.5,166.1,449.74a17.56,17.56,0,0,0-6.56-7.92,18.12,18.12,0,0,0-9.91-2.67h-4.26V486.5H123.1V372.13h34.49a89.4,89.4,0,0,1,17.74,1.62,37.58,37.58,0,0,1,13.58,5.38,25.26,25.26,0,0,1,8.65,9.8,32.7,32.7,0,0,1,3,14.79,30.8,30.8,0,0,1-1.9,11.2,24.89,24.89,0,0,1-5.34,8.44,27,27,0,0,1-8.19,5.73,39.05,39.05,0,0,1-10.37,3.06,14.89,14.89,0,0,1,8,4.77A47.47,47.47,0,0,1,190,448.17l18.92,38.33Zm-5.52-80.68q0-8.4-5.52-12.08t-16.57-3.68h-9.78v32.29h9.05a38.74,38.74,0,0,0,9.37-1.05,21.39,21.39,0,0,0,7.2-3.15,14.59,14.59,0,0,0,4.62-5.21,15.13,15.13,0,0,0,1.63-7.13Z" fill="#fff" stroke="#fff" stroke-width="2.4"/><path d="M310.68,427.87A80.65,80.65,0,0,1,307.28,452a45.37,45.37,0,0,1-29,30.32Q267,486.5,251.38,486.5H221.32V372.13h35a77.65,77.65,0,0,1,23.76,3.28,41.38,41.38,0,0,1,17,10.11,42.72,42.72,0,0,1,10.18,17.33q3.39,10.5,3.39,25Zm-23.9,1.4a80.22,80.22,0,0,0-1.54-16.54A31.79,31.79,0,0,0,280,400.44a23,23,0,0,0-9.82-7.66q-6.16-2.62-15.3-2.63H243.59v78.31h9.78q16.39,0,24.9-9.45t8.51-29.75Z" fill="#fff" stroke="#fff" stroke-width="2.4"/><path d="M409.72,444.41a55.67,55.67,0,0,1-3,19.21,35.08,35.08,0,0,1-22.5,22.09,56,56,0,0,1-18.29,2.8,60.44,60.44,0,0,1-19.55-2.8,32.82,32.82,0,0,1-13.22-8.05,30.85,30.85,0,0,1-7.33-12.78A58.56,58.56,0,0,1,323.53,448V372.13h22.27v74.55a45.3,45.3,0,0,0,1,10.24,18.06,18.06,0,0,0,3.62,7.57,16.12,16.12,0,0,0,6.47,4.68,26.24,26.24,0,0,0,9.78,1.58,28,28,0,0,0,9.32-1.36,14.46,14.46,0,0,0,6.34-4.38,19.87,19.87,0,0,0,3.8-7.74,44.81,44.81,0,0,0,1.27-11.46V372.13h22.27Z" fill="#fff" stroke="#fff" stroke-width="2.4"/><path d="M431.36,389.72V372.13h74.78v17.59H480.06v79h26.07V486.5H431.36V468.73h26.07v-79Z" fill="#fff" stroke="#fff" stroke-width="2.4"/><path d="M586.89,486.5l-31.69-68.25-6.52-14.7v83H528.41V372.13h27.34l32.32,68.69,5.7,13.39V372.13h20.28V486.5Z" fill="#fff" stroke="#fff" stroke-width="2.4"/><path d="M720.61,428.83q0,15.58-3.76,26.86a51.52,51.52,0,0,1-10.32,18.55A40.8,40.8,0,0,1,691.14,485a50.74,50.74,0,0,1-18.88,3.5q-23.36,0-35.13-15t-11.77-43.62q0-15.58,3.76-26.86a51.52,51.52,0,0,1,10.32-18.55,40.81,40.81,0,0,1,15.39-10.76,50.74,50.74,0,0,1,18.88-3.5q23.36,0,35.13,15T720.61,428.83Zm-23.54,1.05q0-20.3-5.61-30.28t-18.47-10a21.78,21.78,0,0,0-11,2.58,20.4,20.4,0,0,0-7.47,7.57,37.64,37.64,0,0,0-4.3,12.29,92.42,92.42,0,0,0-1.36,16.76q0,20.3,5.66,30.28t18.42,10a22,22,0,0,0,11-2.58,20,20,0,0,0,7.47-7.57,38.37,38.37,0,0,0,4.26-12.29,92.43,92.43,0,0,0,1.36-16.76Z" fill="#fff" stroke="#fff" stroke-width="2.4"/><path d="M138.64,170.74V159.6H222v11.14Z" fill="#00979c" stroke="#fff" stroke-width="23.62"/></svg>