<svg xmlns="http://www.w3.org/2000/svg" viewBox="0 0 108.01 128.34"><title>Asset 7</title><path d="M71.58,3.3a2,2,0,0,0-1.11-.69C63.45,1,57.61,0,51.91,0A32.6,32.6,0,0,0,36.67,3.41a2,2,0,0,0-.38.25C21.55,16.13,12.38,36.92,2.75,60.8-2.7,74.33,1,88.41,4.66,102c.68,2.57,1.39,5.22,2,7.84a2,2,0,0,0,1.44,1.46c.63.16,1.24.35,1.86.54A19.42,19.42,0,0,0,15.87,113a13.21,13.21,0,0,0,6-1.51c1.85.74,7.39,3.9,10.49,5.66,3.36,1.92,5.31,3,6.15,3.36a100,100,0,0,0,19.67,5.83,122.78,122.78,0,0,0,22.68,2c2,0,4.13,0,6.24-.13,19.44-.77,20.08-2,20.65-3.13a2.16,2.16,0,0,0,.21-1.34q0-8.85,0-17.7V97.65c0-.45-.05-1.56-.15-3.63-.22-4.63-.86-18.48-.26-21.09a2,2,0,0,0-2.33-3.07l-.07,0c-2.15.84-3.82,1.68-5.3,2.41l-1.58.78C93.06,64.8,82.1,61.8,73.22,61.8c-10.64,0-19.63,3.88-24.1,10.25a7.81,7.81,0,0,0-4.92-.55c4.56-10.91,3.25-18.6,2-26.06a49.52,49.52,0,0,1-1-12.07c3.94,2.68,13.94,2.76,15.17,2.76,2.83,0,8-.23,11.13-1.74a2,2,0,0,0,.61-.46C80.68,24.31,80.53,14.29,71.58,3.3ZM22,54a2,2,0,1,1-2,2A2,2,0,0,1,22,54Zm13.84,48.79a2,2,0,0,1-2.63,1,122.17,122.17,0,0,1-12.78-6.49L19.89,97l-.26-.55C16.34,89.6,15.83,86.08,15,80.25c-.16-1.1-.33-2.3-.53-3.63-1.18-3.56,0-7.41,1.06-10.81.25-.8.49-1.58.68-2.31a2,2,0,1,1,3.87,1c-.2.79-.46,1.62-.73,2.48-.89,2.87-1.89,6.11-1.05,8.47l.09.36c.22,1.42.4,2.69.57,3.85.81,5.65,1.23,8.57,4,14.53a121.26,121.26,0,0,0,11.8,6A2,2,0,0,1,35.82,102.79ZM98,120a2,2,0,1,1-2,2A2,2,0,0,1,98,120Z"/></svg>