<?xml version="1.0" encoding="utf-8"?>
<!-- Generator: Adobe Illustrator 21.1.0, SVG Export Plug-In . SVG Version: 6.00 Build 0)  -->
<svg version="1.1" id="Layer_1" xmlns="http://www.w3.org/2000/svg" xmlns:xlink="http://www.w3.org/1999/xlink" x="0px" y="0px"
	 viewBox="0 0 38 50" style="enable-background:new 0 0 38 50;" xml:space="preserve">
<style type="text/css">
	.st0{fill:#24262B;}
</style>
<title>Asset 1</title>
<path class="st0" d="M9.8,0C10,0.3,10.4,0.6,10,1C9.3,0.5,8.5,0.2,7.7,0.1C8,0.4,8.5,0.7,8.2,1C7.5,0.8,6.7,0.6,6,0.5
	c0.4,0.4,0.7,0.7,0.4,0.9C5.6,1,4.7,0.9,3.8,1.1l0.6,0.6C3.7,1.8,2.9,1.9,2.1,1.8C2.5,2.4,2.8,3,3,3.6c-0.1,0.1-0.6,0-1,0
	c0.4,1,1.2,1.2,1.7,1.5c-0.4,0.2-0.8,0.2-1.1,0c0.4,0.7,0.9,1.2,1.5,1.7C4,6.9,3.7,7.1,3.1,7C3.7,7.6,4.3,8.1,5,8.5
	C4.8,8.7,4.4,8.7,4,8.7c0.7,0.6,1.4,1.1,2.3,1.4c-0.3,0.2-0.7,0.3-1.1,0.2c0.7,0.5,1.5,0.8,2.4,1c-0.2,0.3-0.3,0.3-0.8,0.4
	c0.9,0.5,2.4,0.3,2.7,0.7c0,0.3-0.3,0.5-0.6,0.6c1.6,0,5.7-0.1,6.5-3.2C13.9,8.1,11,6,6.1,3.6c3.7,1.1,7.1,2.9,10.1,5.2
	c3.4-1.5,1-5.4-0.6-7.1c0,0.3-0.1,0.5-0.3,0.7c-0.5-0.7-1-1.2-1.7-1.7c0,0.3,0.2,0.6-0.2,0.9c-0.4-0.5-1-1-1.6-1.3
	c0.3,0.5,0.1,0.7-0.1,0.9C11.2,0.7,10.5,0.3,9.8,0z M28.1,0c-0.7,0.3-1.4,0.7-2,1.2C25.9,1,25.7,0.8,26,0.3
	c-0.6,0.3-1.1,0.8-1.6,1.3C24,1.4,24.2,1,24.2,0.7c-0.6,0.5-1.1,1.1-1.6,1.7c-0.1,0-0.2-0.3-0.3-0.7c-1.7,1.5-3.9,5.5-0.4,7.1
	c3.1-2.3,6.5-4.1,10.2-5.3C27.2,6,24.2,8,22.7,9.8c0.8,3.1,5,3.3,6.6,3.2c-0.3-0.2-0.5-0.3-0.6-0.6c0.4-0.2,1.8,0,2.7-0.5
	c-0.4-0.1-0.5-0.1-0.7-0.4c0.8-0.2,1.7-0.5,2.4-1c-0.3,0.1-0.7,0-1-0.2c0.8-0.4,1.6-0.9,2.3-1.4c-0.3,0-0.7-0.1-1-0.2
	c0.7-0.5,1.3-1,1.9-1.5c-0.3,0.1-0.7,0.1-1-0.1c0.5-0.6,1.2-1,1.6-1.7c-0.4,0.2-0.8,0.2-1.2,0c0.2-0.4,1.1-0.6,1.5-1.6
	c-0.4,0-0.9,0.1-1,0c0.2-0.7,0.5-1.3,0.9-1.8c-0.8,0-1.7,0-2.5-0.1L34,1.1c-0.9-0.1-1.8,0-2.6,0.3c-0.3-0.3,0-0.6,0.4-0.9
	c-0.7,0.1-1.5,0.3-2.2,0.5c-0.3-0.3,0.2-0.6,0.5-0.9c-0.8,0.2-1.6,0.5-2.2,0.9C27.5,0.6,27.9,0.3,28.1,0z M19.3,13.2
	c-2.8,0-5.6,2.1-5.6,3.3c0,1.5,2.2,3.1,5.6,3.1s5.6-1.2,5.6-2.8C24.8,15.1,21.7,13.2,19.3,13.2z M10.8,14.4
	c-3.6-0.1-6.6,2.6-6.8,6.2c0,0.3,0,0.7,0,1c0.1,2,10.2-6.7,8.5-7.1C12,14.4,11.4,14.4,10.8,14.4z M27.2,14.5c-0.6,0-1.2,0-1.7,0.1
	c-1.7,0.2,8.3,9,8.4,7c0.3-3.6-2.4-6.8-6-7.1C27.7,14.5,27.5,14.5,27.2,14.5L27.2,14.5z M25.2,20c-0.9,0-1.9,0.3-2.7,0.8
	c-2.5,1.6-2.9,5.3-1,8.3s5.7,4.1,8.2,2.4s2.9-5.4,0.9-8.3C29.5,21.2,27.5,20.1,25.2,20L25.2,20z M12.8,20.3c-2,0.2-3.9,1.4-4.9,3.2
	c-2,3-1.6,6.7,1,8.3s6.1,0.5,8.1-2.3s1.6-6.7-1-8.3C15,20.5,13.9,20.2,12.8,20.3L12.8,20.3z M34.5,23.5c-2.4,0-0.6,11.2,1.5,10.3
	c2.6-2.5,2.6-6.7,0-9.2c-0.4-0.4-0.8-0.7-1.3-1C34.7,23.5,34.6,23.5,34.5,23.5z M3.5,23.7c-0.1,0-0.2,0-0.2,0
	C-1.2,26.3-0.5,32.1,2,34C4.2,34.9,5.9,23.7,3.5,23.7z M19.4,31.3c-3.3-0.1-6,2.4-6.1,5.6c0,0,0,0,0,0v0.1c0.1,3.2,2.8,5.7,6,5.6
	c0,0,0.1,0,0.1,0c3.2,0.1,6-2.4,6.1-5.6c0,0,0,0,0,0C25.5,33.9,22.7,31.4,19.4,31.3L19.4,31.3z M33,33.5c-1.4,0-3.2,1.4-4.8,3.2
	c-1.9,2.1-3,6.2-1.6,7.5c1.4,1,4.9,0.8,7.5-2.8c1.8-2.5,1.2-6.4,0.2-7.5C33.9,33.7,33.5,33.5,33,33.5L33,33.5z M5.2,34.4
	c-0.4,0-0.7,0.2-1.1,0.4c-1.1,0.9-1.3,3.7,0.3,6.6c2.3,3.4,5.6,3.7,7,2.9c1.5-1.1,0.6-4.8-1.1-6.8S6.8,34.2,5.2,34.4L5.2,34.4z
	 M18.5,44.4c-2.3,0.2-5.1,1.1-5.1,2.2c0,1,3,3.5,6,3.4c2.9,0.1,5.9-2.5,5.9-3.8s-3.3-2-5.8-1.9C19.1,44.4,18.8,44.4,18.5,44.4z"/>
</svg>
