<svg xmlns="http://www.w3.org/2000/svg" viewBox="0 0 37.99 50.03"><title>Asset 1</title><path d="M9.75,0c.21.31.63.6.22,1A4.38,4.38,0,0,0,7.69.09c.31.3.81.6.5.91A11.49,11.49,0,0,0,6,.5c.41.4.72.7.41.91a4.25,4.25,0,0,0-2.56-.31l.59.63a12,12,0,0,1-2.37.09A6.09,6.09,0,0,1,3,3.63c-.1.1-.62,0-1,0,.41,1,1.24,1.2,1.66,1.5a1.45,1.45,0,0,1-1.12,0A6.16,6.16,0,0,0,4.06,6.84c-.1.1-.32.23-.94.13A6.75,6.75,0,0,0,5,8.47c-.21.2-.62.19-1,.19a6.62,6.62,0,0,0,2.28,1.44,1.43,1.43,0,0,1-1.06.19,6.57,6.57,0,0,0,2.41,1c-.21.3-.34.31-.75.41.93.5,2.38.32,2.69.72,0,.3-.28.49-.59.59,1.55,0,5.68-.09,6.5-3.22C13.89,8.07,11,6,6.13,3.63A31,31,0,0,1,16.25,8.88c3.41-1.51,1-5.45-.62-7.06a1.67,1.67,0,0,1-.28.72A8.69,8.69,0,0,0,13.69.81c0,.31.2.61-.22.91A6.63,6.63,0,0,0,11.91.41c.31.5.11.7-.09.91A5.48,5.48,0,0,0,9.75,0ZM28.1,0a5.84,5.84,0,0,0-2,1.22c-.21-.2-.41-.4-.09-.91a5,5,0,0,0-1.56,1.31c-.41-.2-.22-.6-.22-.91A12.74,12.74,0,0,0,22.6,2.44c-.11,0-.21-.31-.31-.72-1.66,1.52-3.94,5.47-.41,7.09A33.06,33.06,0,0,1,32.06,3.56C27.18,6,24.25,8,22.69,9.75c.83,3.15,5,3.32,6.56,3.22-.31-.2-.52-.29-.62-.59.42-.2,1.75,0,2.69-.5-.42-.1-.51-.1-.72-.41a7.25,7.25,0,0,0,2.38-1,1.34,1.34,0,0,1-1-.19,10.5,10.5,0,0,0,2.28-1.44,6.26,6.26,0,0,1-1-.19,14.9,14.9,0,0,0,1.88-1.53A1.15,1.15,0,0,1,34.13,7c.52-.61,1.25-1,1.56-1.72a1.17,1.17,0,0,1-1.16,0c.21-.41,1.06-.61,1.47-1.63-.41,0-.93.1-1,0a6.24,6.24,0,0,1,.94-1.84,14.88,14.88,0,0,1-2.5-.09L34,1.13a5.39,5.39,0,0,0-2.59.28c-.31-.3,0-.6.41-.91a11.55,11.55,0,0,0-2.19.5c-.31-.31.22-.6.53-.91A7.2,7.2,0,0,0,27.91,1C27.49.59,27.88.31,28.1,0ZM19.28,13.25c-2.78,0-5.56,2.14-5.56,3.31,0,1.5,2.25,3.13,5.56,3.13s5.56-1.18,5.56-2.78C24.84,15.09,21.74,13.25,19.28,13.25Zm-8.44,1.13a6.52,6.52,0,0,0-6.75,7.22c.1,2,10.18-6.74,8.47-7.06a9.37,9.37,0,0,0-1.72-.16Zm16.38.16a9.31,9.31,0,0,0-1.72.13c-1.71.22,8.33,9,8.44,7a6.59,6.59,0,0,0-6.72-7.16Zm-2,5.47a5.06,5.06,0,0,0-2.66.75c-2.46,1.6-2.89,5.32-1,8.31s5.69,4.08,8.16,2.38,2.86-5.35.94-8.34A6.68,6.68,0,0,0,25.25,20Zm-12.47.25a6.7,6.7,0,0,0-4.94,3.16c-2,3-1.6,6.74,1,8.34s6.09.54,8.12-2.34,1.6-6.74-1-8.34A5,5,0,0,0,12.78,20.25ZM34.53,23.5c-2.42,0-.64,11.21,1.53,10.28a6.52,6.52,0,0,0-1.28-10.25A1,1,0,0,0,34.53,23.5Zm-31,.19a1,1,0,0,0-.25,0C-1.24,26.29-.49,32.08,2,34c2.18.93,3.95-10.29,1.53-10.31Zm15.91,7.63A5.89,5.89,0,0,0,13.31,37v.09a5.79,5.79,0,0,0,6.09,5.56A5.87,5.87,0,0,0,25.5,37c0-3.1-2.78-5.58-6.09-5.69Zm13.53,2.22c-1.44,0-3.18,1.41-4.78,3.25-1.93,2.14-3,6.18-1.59,7.47,1.39,1,4.91.85,7.47-2.78,1.82-2.46,1.18-6.4.22-7.47a2,2,0,0,0-1.31-.47Zm-27.78.84a2.57,2.57,0,0,0-1.06.38c-1.07.86-1.26,3.74.34,6.63,2.35,3.42,5.64,3.73,7,2.88,1.5-1.07.65-4.81-1.06-6.84S6.77,34.21,5.16,34.38Zm13.28,10c-2.34.15-5.12,1.1-5.12,2.22,0,1,3,3.54,6,3.44,2.89.11,5.87-2.47,5.87-3.75s-3.29-2-5.75-1.91a8.9,8.9,0,0,0-1,0Z" fill="#fff"/></svg>