<svg xmlns="http://www.w3.org/2000/svg" viewBox="0 0 96.82 56"><title>Asset 4</title><path d="M67.27,49.83a2.48,2.48,0,0,1-2.15-1.22L38.59,4.28A2.5,2.5,0,0,1,40.73.5H93.82A2.5,2.5,0,0,1,96,4.28L69.42,48.61A2.48,2.48,0,0,1,67.27,49.83Z" fill="#1a1a1a"/><path d="M93.82,1a2,2,0,0,1,1.72,3L69,48.35a2,2,0,0,1-3.43,0L39,4a2,2,0,0,1,1.72-3H93.82m0-1H40.73a3,3,0,0,0-2.57,4.54L64.7,48.87a3,3,0,0,0,5.15,0L96.39,4.54A3,3,0,0,0,93.82,0Z"/><path d="M3,55.5A2.5,2.5,0,0,1,.86,51.72L27.4,7.39a2.5,2.5,0,0,1,4.29,0L58.24,51.72a2.5,2.5,0,0,1-2.15,3.78Z" fill="#1a1a1a"/><path d="M29.55,6.67a2,2,0,0,1,1.72,1L57.81,52a2,2,0,0,1-1.72,3H3a2,2,0,0,1-1.72-3L27.83,7.65a2,2,0,0,1,1.72-1m0-1A3,3,0,0,0,27,7.13L.43,51.46A3,3,0,0,0,3,56H56.09a3,3,0,0,0,2.57-4.54L32.12,7.13a3,3,0,0,0-2.57-1.46Z"/></svg>