<svg xmlns="http://www.w3.org/2000/svg" viewBox="0 0 223.53 37.97"><title>Asset 5</title><path d="M24.12,14.47a3.22,3.22,0,0,1-.8.92,1.8,1.8,0,0,1-1.08.31A2.64,2.64,0,0,1,21,15.32l-1.53-.83a12.7,12.7,0,0,0-2-.83A7.82,7.82,0,0,0,15,13.3a5.38,5.38,0,0,0-3.61,1,3.51,3.51,0,0,0-1.19,2.79A2.57,2.57,0,0,0,10.91,19a6.15,6.15,0,0,0,1.87,1.27,20,20,0,0,0,2.65,1q1.49.45,3,1a27.4,27.4,0,0,1,3,1.29,10.18,10.18,0,0,1,2.65,1.89,8.8,8.8,0,0,1,1.87,2.79,9.92,9.92,0,0,1,.71,4A12.93,12.93,0,0,1,25.88,37a11.29,11.29,0,0,1-2.59,3.91,12,12,0,0,1-4.18,2.63,15.64,15.64,0,0,1-5.65,1,18.07,18.07,0,0,1-3.53-.36,21,21,0,0,1-3.48-1,20.19,20.19,0,0,1-3.16-1.54,13.43,13.43,0,0,1-2.58-2l2.55-4a2.55,2.55,0,0,1,.8-.73,2.1,2.1,0,0,1,1.08-.29A2.91,2.91,0,0,1,6.69,35l1.76,1.07a14.26,14.26,0,0,0,2.26,1.07,8.45,8.45,0,0,0,3,.48,5.73,5.73,0,0,0,3.65-1,3.93,3.93,0,0,0,1.3-3.28A3.1,3.1,0,0,0,18,31.22a5.52,5.52,0,0,0-1.87-1.35,17.34,17.34,0,0,0-2.64-.94q-1.48-.41-3-.91a22.24,22.24,0,0,1-3-1.22,9.58,9.58,0,0,1-2.64-1.91,8.92,8.92,0,0,1-1.87-3,11.73,11.73,0,0,1-.71-4.37A10.39,10.39,0,0,1,3,13.48,10.55,10.55,0,0,1,5.46,9.93a12.18,12.18,0,0,1,4-2.49,14.79,14.79,0,0,1,5.43-.93,20.41,20.41,0,0,1,3.33.27,17.57,17.57,0,0,1,3.07.79A16.87,16.87,0,0,1,24,8.82a12.52,12.52,0,0,1,2.26,1.65Z" transform="translate(-0.71 -6.51)"/><path d="M40.52,44.08H31.85V6.92h8.67Z" transform="translate(-0.71 -6.51)"/><path d="M89.48,6.92V44.08h-7.6V22.71q0-.74,0-1.61t.14-1.76l-9.87,19.1A3.23,3.23,0,0,1,71,39.79a3.42,3.42,0,0,1-1.77.46H68a3.42,3.42,0,0,1-1.77-.46A3.23,3.23,0,0,1,65,38.44L55.13,19.29q.08.92.13,1.8t.05,1.62V44.08h-7.6V6.92h6.58l1,0A2.51,2.51,0,0,1,56,7.1a1.72,1.72,0,0,1,.6.4,3.11,3.11,0,0,1,.52.75l9.56,18.84q.51,1,1,2t.91,2.14q.43-1.12.9-2.19t1-2L80,8.25a3.11,3.11,0,0,1,.52-.75,1.71,1.71,0,0,1,.6-.4,2.51,2.51,0,0,1,.75-.15l1,0Z" transform="translate(-0.71 -6.51)"/><path d="M119.06,37.19v6.88H96.67V6.92h8.62V37.19Z" transform="translate(-0.71 -6.51)"/><path d="M136.37,29.95V44.08h-8.62V29.95l-13.46-23h7.6a2.75,2.75,0,0,1,1.77.52,4.25,4.25,0,0,1,1.08,1.34L130,19.6q.66,1.28,1.2,2.38t.94,2.18q.38-1.1.88-2.21t1.16-2.36l5.2-10.81a5,5,0,0,1,.43-.66,3.33,3.33,0,0,1,.6-.6,3,3,0,0,1,.79-.43,2.81,2.81,0,0,1,1-.17h7.65Z" transform="translate(-0.71 -6.51)"/><path d="M185.18,6.92V44.08h-4.49a3.9,3.9,0,0,1-1.67-.32,4.09,4.09,0,0,1-1.34-1.11L160.16,20.49q.1,1,.14,1.93t0,1.75V44.08h-7.6V6.92h4.54a7.38,7.38,0,0,1,.94.05,2.42,2.42,0,0,1,.69.19,2.31,2.31,0,0,1,.59.4,6.76,6.76,0,0,1,.64.69l17.67,22.31q-.13-1.07-.18-2.08t-.05-1.9V6.92Z" transform="translate(-0.71 -6.51)"/><path d="M224.25,44.08h-8.62a2.15,2.15,0,0,1-1.36-.41,3.1,3.1,0,0,1-.83-1l-7.45-13a5.24,5.24,0,0,1-.46,1l-6.94,12a5.46,5.46,0,0,1-.84.94,1.8,1.8,0,0,1-1.25.43h-8.06L200.4,25l-11.5-18h8.62a2.68,2.68,0,0,1,1.24.22,1.93,1.93,0,0,1,.7.73l7.39,12.52a5.33,5.33,0,0,1,.29-.64q.17-.31.37-.64L214,8a2.62,2.62,0,0,1,.75-.82,1.78,1.78,0,0,1,1-.25H224L212.34,24.59Z" transform="translate(-0.71 -6.51)"/></svg>