<svg xmlns="http://www.w3.org/2000/svg" viewBox="0 0 119.84 23.3"><title>Asset 3</title><path d="M16.1,16.48a7.48,7.48,0,0,1-.51,2.83,5.94,5.94,0,0,1-1.46,2.14,6.52,6.52,0,0,1-2.29,1.36,8.9,8.9,0,0,1-3,.48,12.46,12.46,0,0,1-4.74-.85A13.53,13.53,0,0,1,.67,20.51l2.66-2.66A7.6,7.6,0,0,0,5.7,19.33a6.39,6.39,0,0,0,1.5.42,8.79,8.79,0,0,0,1.15.1,5.22,5.22,0,0,0,1.52-.21,4.3,4.3,0,0,0,1.2-.56A2.5,2.5,0,0,0,12.16,17a2.1,2.1,0,0,0-.58-1.44,3.34,3.34,0,0,0-1.15-.83,6.14,6.14,0,0,0-1.22-.51l-1.15-.35a1.22,1.22,0,0,0-.29-.08.5.5,0,0,1-.22-.08.48.48,0,0,1-.19-.06q-.67-.19-1.94-.67a12.55,12.55,0,0,1-2.51-1.31A5.68,5.68,0,0,1,0,6.82,7,7,0,0,1,.66,3.63,6.1,6.1,0,0,1,2.37,1.52,6.67,6.67,0,0,1,4.72.35,9.67,9.67,0,0,1,7.26,0a11.92,11.92,0,0,1,3.87.54,14.43,14.43,0,0,1,2.5,1.09,7.18,7.18,0,0,1,.82.56l.59.5L12.32,5.44a6.87,6.87,0,0,0-1.76-1.31,6.47,6.47,0,0,0-2.82-.64,5.27,5.27,0,0,0-1.28.16,4.92,4.92,0,0,0-1.12.42A2.59,2.59,0,0,0,3.94,6.34a2.06,2.06,0,0,0,.58,1.47,3.87,3.87,0,0,0,1.15.86,6.7,6.7,0,0,0,1.28.51l1.25.35.38.1.61.19a9.66,9.66,0,0,1,1.06.38q.61.26,1.33.61a11.56,11.56,0,0,1,1.42.83Q16.1,13.7,16.1,16.48Z" fill="#fff"/><path d="M22,22.88H18.18V.51H22Z" fill="#fff"/><path d="M46.85.45v22.4H43V7L35.62,18.4,28.26,7V22.85H24.42V.45h4.19l7,10.88,7-10.88Z" fill="#fff"/><path d="M61.73,19v3.84H49.09V.51h3.84V19Z" fill="#fff"/><path d="M78.14.48,69.5,14.24l-.35.54v8.1H65.31v-8.1l-9-14.3h4.54l6.37,10.14L73.6.48Z" fill="#fff"/><path d="M96.58.45v22.4H92.42l-9-15.33V22.85H79.58V.45h4.16l9,15.33V.45Z" fill="#fff"/><path d="M111.33,11.68l8.51,11.2H115l-6.11-8-6.11,8H98l8.51-11.2L98,.48h4.8l6.11,8,6.11-8h4.8Z" fill="#fff"/></svg>