<svg xmlns="http://www.w3.org/2000/svg" viewBox="0 0 79.56 100"><title>Asset 4</title><path d="M23,90.65c5.17-2.58,6.73-5.27,6-10.46a8.78,8.78,0,0,0,7.81-2.53A8.32,8.32,0,0,0,39,69.87a26.13,26.13,0,0,0,4.34-.62,8.32,8.32,0,0,0,3.37-13.87c-2.81-2.81-5.74-5.51-8.63-8.26L15.13,25.3c-1-1-2-1.88-3-2.87a6,6,0,0,1,8.22-8.61C24,17.18,27.57,20.62,31.17,24Q39.07,31.51,47,39a16,16,0,0,0,4.89,3.26,6,6,0,0,0,6.85-1.1A16.44,16.44,0,0,0,61.34,38c1.74-2.71,3.27-5.54,5-8.24a7.2,7.2,0,0,1,12.08,7.82c-2.75,4.61-5.53,9.19-8.3,13.79-1.36,2.26-2.71,4.53-4.11,6.76A1.55,1.55,0,0,0,66,59.81c1.29,2.6,2.51,5.24,3.78,7.85,4.19,8.62,1,18.19-7.57,22.42q-8.71,4.3-17.53,8.39a16.38,16.38,0,0,1-21-6.44C23.45,91.58,23.22,91.11,23,90.65Z"/><path d="M13.91,49.42A5.53,5.53,0,0,1,17.33,51C23.2,56.48,29.07,62,34.9,67.53a6,6,0,0,1-8.23,8.65c-5.13-4.79-10.22-9.63-15.33-14.44-.72-.67-1.45-1.32-2.15-2A6.05,6.05,0,0,1,7.81,53C8.71,50.86,10.89,49.42,13.91,49.42Z"/><path d="M46.67,62.06a5.48,5.48,0,0,1-3.44,4.62,5.53,5.53,0,0,1-6.28-.82c-2.74-2.43-5.36-5-8-7.53q-4.78-4.51-9.55-9a5.74,5.74,0,0,1-1.82-5.72,5.94,5.94,0,0,1,10-3c2.2,2,4.35,4.12,6.53,6.18,3.31,3.13,6.61,6.29,9.94,9.4A7.13,7.13,0,0,1,46.67,62.06Z"/><path d="M6.19,62.4a6.11,6.11,0,0,1,4.26,1.94L22.31,75.59c.81.77,1.64,1.51,2.44,2.3a6,6,0,1,1-8.26,8.65c-4.65-4.38-9.26-8.8-13.93-13.17C.75,71.68-.39,69.79.12,67.22A5.9,5.9,0,0,1,6.19,62.4Z"/><path d="M60.66,20.93a2.59,2.59,0,0,1-2.39-1.42,2.27,2.27,0,0,1,.39-2.61,5.36,5.36,0,0,1,.92-.77C61.7,14.56,63.82,13,66,11.46a2.42,2.42,0,0,1,3.56.36,2.39,2.39,0,0,1-.69,3.5q-3.33,2.48-6.71,4.9A8.3,8.3,0,0,1,60.66,20.93Z"/><path d="M40.73,13.52A2.55,2.55,0,0,1,39.26,16a2.38,2.38,0,0,1-2.7-.59c-1.88-2.49-3.74-5-5.51-7.58a2.28,2.28,0,0,1,.69-3.19A2.37,2.37,0,0,1,35,5.16c1.8,2.39,3.55,4.81,5.28,7.25A4.44,4.44,0,0,1,40.73,13.52Z"/><path d="M54.28,15.31a2.36,2.36,0,0,1-2.15-3.42c.38-1,.86-2,1.29-2.94.74-1.67,1.45-3.36,2.22-5a2.36,2.36,0,0,1,3-1.39,2.29,2.29,0,0,1,1.48,3.12c-1.17,2.84-2.45,5.64-3.72,8.44A2.11,2.11,0,0,1,54.28,15.31Z"/><path d="M48.56,10.72c0,1.73-.78,2.77-2.14,2.9a2.43,2.43,0,0,1-2.63-2.29c-.33-2.79-.62-5.59-.86-8.39a3.39,3.39,0,0,1,.31-1.79A2.13,2.13,0,0,1,45.62,0a2.19,2.19,0,0,1,2,1.93c.27,2,.48,4.08.71,6.12C48.38,9,48.48,10,48.56,10.72Z"/></svg>