<svg xmlns="http://www.w3.org/2000/svg" viewBox="0 0 498 110.32"><title>Asset 1</title><path d="M487,0,459.86,58.2,449.6,36.12H438.52l16.84,36.12h9L498,0H487Z" fill="#cd040b"/><path d="M198.57,10.53h22.06V30.07H198.57ZM25,108.07h23l25-72H51L37,82.35h-.29L22.62,36.11H0l25,72ZM106,49.75c7.73,0,13.07,5.76,13.91,14.19H90.5c1.69-8.57,6.32-14.19,15.46-14.19m1.12,44.54c-9.7,0-15.6-6.32-16.72-16h51.86c.14-15.46-3.93-27.82-12.51-35.55-6-5.62-14.05-8.71-24.17-8.71C83.9,34,68.86,50.45,68.86,72s14.34,38.23,38.09,38.23c9,0,16.16-2.39,22.06-6.47,6.32-4.35,10.82-10.68,12.09-17H120c-2.11,4.78-6.46,7.59-12.93,7.59m40.33,13.77h21.92V75c0-15,9-21.64,22.76-19.82h.42v-19a12.44,12.44,0,0,0-4.5-.56c-8.57,0-14.33,3.94-19.25,12.36h-.42V36.11H147.42v72Zm51.16,0h22.06v-72H198.57Zm28.11,0h61.55V90.78H253.38v-.42L286.69,53V36.11h-60V53.4H260.4v.42L226.68,91.49v16.58ZM327.16,94.16c-10.4,0-15.88-8.71-15.88-21.92s5.48-21.93,15.88-21.93,16.16,8.58,16.16,21.93-5.76,21.92-16.16,21.92m.14-60c-22.91,0-38.23,16.45-38.23,38.09s15.32,38.08,38.23,38.08,38.22-16.58,38.22-38.08S350.2,34.15,327.3,34.15m43,73.92h21.92V68c0-9.13,5.34-15.6,13.21-15.6C413,52.42,417,57.76,417,65.35v42.72h21.93V61.13c0-15.88-9.56-27.12-25-27.12C404,34,397.14,38.23,391.95,46h-.42V36.11H370.3v72Z" fill="#fff"/></svg>